<svg id="Layer_1" xmlns="http://www.w3.org/2000/svg" viewBox="78 13 768 768"><style>.st0{fill:#00c853}.st1{fill:#3f51b5}.st2{fill:url(#SVGID_1_)}</style><path class="st0" d="M802.5 410.2c-29-30.4-64-47.2-105-50.2-11-56-38.5-102.1-82.5-138.7-44-36.6-95-54.8-153-54.8v512.9h223.6c44 0 81.8-15.8 113.2-47.2S846 563 846 519c0-42-14.5-78.4-43.5-108.8z"/><path class="st1" d="M611.6 418.6c13.3-24.3 20.8-52.1 20.8-81.7 0-94.1-76.3-170.4-170.4-170.4-45 0-86.5 12-124.5 36S270 258 249 297c-48 5-88.5 25.8-121.5 62.2S78 438.5 78 487.5c0 53 18.8 98.2 56.2 135.8S217 679.5 270 679.5h415.5c3.2 0 6.3-.1 9.4-.3 20.1-28 31.9-62.3 31.9-99.3.1-74.8-48.2-138.4-115.2-161.3z"/><linearGradient id="SVGID_1_" gradientUnits="userSpaceOnUse" x1="240.342" y1="297.856" x2="642.074" y2="699.587" gradientTransform="translate(0 4)"><stop offset=".19" stop-color="#FFF"/><stop offset=".7" stop-color="#ededed"/><stop offset="1" stop-color="#e0e0e0"/></linearGradient><path class="st2" d="M611.6 418.6c13.3-24.3 20.8-52.1 20.8-81.7 0-94.1-76.3-170.4-170.4-170.4-45 0-86.5 12-124.5 36S270 258 249 297c-48 5-88.5 25.8-121.5 62.2S78 438.5 78 487.5c0 53 18.8 98.2 56.2 135.8S217 679.5 270 679.5h415.5c3.2 0 6.3-.1 9.4-.3 20.1-28 31.9-62.3 31.9-99.3.1-74.8-48.2-138.4-115.2-161.3z"/></svg>