<svg id="Layer_1" xmlns="http://www.w3.org/2000/svg" viewBox="78 13 768 768"><style>.st0{fill:#00c853}.st1{fill:#3f51b5}.st2{fill:url(#SVGID_1_)}</style><path class="st0" d="M697.5 334c41 3 76 19.8 105 50.2S846 451 846 493c0 44-15.8 81.8-47.2 113.2s-69.2 47.2-113.2 47.2H270c-53 0-98.2-18.8-135.8-56.2S78 514.5 78 461.5c0-49 16.5-91.8 49.5-128.2S201 276 249 271c21-39 50.5-70.5 88.5-94.5s79.5-36 124.5-36c58 0 109 18.2 153 54.8S686.5 278 697.5 334z"/><path class="st1" d="M611.6 392.6c13.3-24.3 20.8-52.1 20.8-81.7 0-94.1-76.3-170.4-170.4-170.4-45 0-86.5 12-124.5 36S270 232 249 271c-48 5-88.5 25.8-121.5 62.2S78 412.5 78 461.5c0 53 18.8 98.2 56.2 135.8S217 653.5 270 653.5h415.5c3.2 0 6.3-.1 9.4-.3 20.1-28 31.9-62.3 31.9-99.3.1-74.8-48.2-138.4-115.2-161.3z"/><linearGradient id="SVGID_1_" gradientUnits="userSpaceOnUse" x1="220.12" y1="255.579" x2="516.369" y2="551.828"><stop offset="0" stop-color="#9fa8da"/><stop offset=".021" stop-color="#9ca6d9"/><stop offset=".471" stop-color="#6a78c6"/><stop offset=".811" stop-color="#4b5cba"/><stop offset="1" stop-color="#3f51b5"/></linearGradient><path class="st2" d="M611.6 392.6c13.3-24.3 20.8-52.1 20.8-81.7 0-94.1-76.3-170.4-170.4-170.4-45 0-86.5 12-124.5 36S270 232 249 271c-48 5-88.5 25.8-121.5 62.2S78 412.5 78 461.5c0 53 18.8 98.2 56.2 135.8S217 653.5 270 653.5h415.5c3.2 0 6.3-.1 9.4-.3 20.1-28 31.9-62.3 31.9-99.3.1-74.8-48.2-138.4-115.2-161.3z"/></svg>