<svg id="Layer_1" xmlns="http://www.w3.org/2000/svg" viewBox="0 0 400 71.2"><style>.st0{fill:#3f51b5}.st1{fill:#4caf50}.st2{fill:#1b1b1d}</style><path class="st0" d="M99.8 12.4h16.7l2.5 18.3-14.6 23.1z"/><path class="st1" d="M122.8 68.5c-3.6 3.4-7.5 2.8-9.9 2.5-3.5-.4-9.7-1.8-4.1-9l40.4-62h19.5c-.2.5-43.4 66.2-45.9 68.5z"/><path class="st2" d="M41.4 12.5h14.7l14.7 31.7 8.6-31.7h15.7l-15.3 57H66L50.6 36.7l-8.8 32.8H26.1l15.3-57zM165.2 12.5h45.7l-3.7 13.4h-30l-2.4 8.6H202L198.7 47h-27.2l-2.4 9h30.5L196 69.5h-46.1l15.3-57zM219.7 12.5h14.7l14.7 31.7 8.6-31.7h15.7l-15.3 57h-13.8L229 36.7l-8.8 32.8h-15.7l15.2-57zM272.6 45.7c0-16.9 13.7-34.4 35.6-34.4 11.7 0 19.7 5.6 23.1 14.4L317.6 33c-2.3-4.6-5.9-7.3-11.5-7.3-9.5 0-17 8.9-17 18.8 0 7.3 4.8 11.7 11.4 11.7 5 0 8.6-2.1 12.2-5.8l10.7 9.5c-5.5 6.3-13 10.7-23.9 10.7-15.7.1-26.9-9.6-26.9-24.9zM330 45c0-17.3 14.2-33.6 34-33.6 16.2 0 27.2 11.1 27.2 25.6 0 17.4-14.2 33.6-34 33.6C341 70.6 330 59.5 330 45zm45-6.7c0-7.2-4.4-12.6-12.5-12.6-9.9 0-16.5 9.7-16.5 18.2 0 7.2 4.4 12.6 12.5 12.6 10.1-.1 16.5-9.8 16.5-18.2zM31.1 12.5H15.3l-3.5 13.2h15.8zM0 69.5h15.8l8.6-31.6-13.1-8.8z"/><g><path class="st2" d="M391.1 17c0-2.4 2-4.5 4.4-4.5 2.5 0 4.4 2 4.4 4.4 0 2.4-2 4.5-4.4 4.5-2.4 0-4.4-2-4.4-4.4zm8.4 0c0-2.2-1.7-4-3.9-4s-3.9 1.8-3.9 4 1.7 4 3.9 4c2.2-.1 3.9-1.9 3.9-4zm-5.7-2.4h2c1 0 1.7.5 1.7 1.4 0 .7-.4 1.2-1 1.4l1.2 1.7h-1l-1.1-1.6h-.9v1.6h-.9v-4.5zm2 2.3c.6 0 .9-.3.9-.7 0-.5-.3-.7-.9-.7h-1.1V17h1.1z"/></g></svg>